#!OML:ASF H:\Terrain\Patient Classification 1\Terrain2\Thursday\justin.ASF
:FULLY-SPECIFIED
:DEGREES
1764
root 8.56995 22.2747 -6.22375 5.0866 2.40289 -368.114
lowerback 18.3024 2.42704 7.29002
upperback 3.06879 4.68476 1.23872
thorax -6.43135 2.13192 -3.872
lowerneck -16.2881 -3.43794 -9.62563
upperneck 30.3429 -4.32574 7.3791
head 13.2943 -2.00613 3.88057
rclavicle 6.4692e-014 -3.06253e-014
rhumerus -27.0162 -1.43064 -85.0147
rradius 35.2231
rwrist -10.0016
rhand -17.5949 13.0062
rfingers 7.12502
rthumb 8.6613 -16.7961
lclavicle 6.4692e-014 -3.06253e-014
lhumerus -31.5587 8.67176 84.0995
lradius 28.1516
lwrist 1.40837
lhand -17.3256 21.6994
lfingers 7.12502
lthumb 8.92119 51.4908
rfemur 17.6267 -2.96111 29.4531
rtibia -9.54166e-015
rfoot 34.2385 0.454272
rtoes 2.2941
lfemur -72.6298 6.23219 -13.908
ltibia 94.4969
lfoot -22.854 -15.9529
ltoes 8.87092
1765
root 8.58406 22.4022 -6.10608 5.59397 2.61161 -368.175
lowerback 18.1283 2.34834 7.16321
upperback 2.97232 4.5496 1.25557
thorax -6.469 2.06564 -3.74674
lowerneck -16.3769 -3.46855 -9.62369
upperneck 30.235 -4.39865 7.49683
head 13.2787 -2.02074 3.91146
rclavicle -4.4155e-014 -5.44173e-015
rhumerus -27.0682 -0.832991 -85.2334
rradius 35.3448
rwrist -10.3544
rhand -16.6167 12.6123
rfingers 7.12502
rthumb 9.60515 -17.1487
lclavicle -4.4155e-014 -5.44173e-015
lhumerus -31.6698 7.72724 84.3155
lradius 28.6312
lwrist 1.97326
lhand -16.9172 21.6702
lfingers 7.12502
lthumb 9.31523 51.4444
rfemur 17.0535 -3.16983 29.3947
rtibia 1.90833e-014
rfoot 36.0245 0.345919
rtoes 3.42388
lfemur -71.9414 5.91489 -13.7876
ltibia 93.6193
lfoot -23.3275 -15.6507
ltoes 7.65636
1766
root 8.59837 22.5242 -5.98888 6.02452 2.66613 -368.304
lowerback 17.9358 2.36007 7.14782
upperback 2.9502 4.54601 1.24809
thorax -6.3898 2.06749 -3.73385
lowerneck -16.5475 -3.50578 -9.53831
upperneck 30.1741 -4.51757 7.66539
head 13.3044 -2.03786 3.94235
rclavicle -2.58172e-014 -2.48481e-015
rhumerus -26.9103 -0.741527 -85.2736
rradius 35.3526
rwrist -9.92698
rhand -15.8977 11.6573
rfingers 7.12502
rthumb 10.2988 -18.0706
lclavicle -2.58172e-014 -2.48481e-015
lhumerus -31.644 6.59412 84.5971
lradius 29.0297
lwrist 2.31722
lhand -17.0246 21.44
lfingers 7.12502
lthumb 9.2116 51.2188
rfemur 16.5803 -3.24555 29.4351
rtibia 4.13472e-014
rfoot 37.7175 0.606189
rtoes 2.46915
lfemur -71.2232 5.77132 -13.6005
ltibia 92.7625
lfoot -23.519 -15.5504
ltoes 7.35911
1767
root 8.61635 22.6413 -5.87484 6.32617 2.70474 -368.374
lowerback 17.9332 2.33529 7.11983
upperback 2.90481 4.51022 1.24435
thorax -6.44348 2.04713 -3.71624
lowerneck -16.7268 -3.53613 -9.45216
upperneck 30.1547 -4.59487 7.73127
head 13.3426 -2.05022 3.93994
rclavicle 3.27995e-015 1.53064e-014
rhumerus -26.8973 -0.120346 -85.3871
rradius 35.3045
rwrist -9.67474
rhand -16.0139 12.1381
rfingers 7.12502
rthumb 10.1867 -17.5953
lclavicle 3.27995e-015 1.53064e-014
lhumerus -31.6055 5.68317 84.8752
lradius 29.3011
lwrist 2.7625
lhand -17.419 21.3267
lfingers 7.12502
lthumb 8.831 51.1219
rfemur 13.2698 -3.42946 29.4127
rtibia 6.05549
rfoot 35.6666 1.14367
rtoes -1.28427
lfemur -70.3819 5.59591 -13.4562
ltibia 91.8673
lfoot -23.483 -15.7343
ltoes 8.42024
1768
root 8.63413 22.7596 -5.76504 6.57781 2.76378 -368.458
lowerback 17.9721 2.28498 7.07788
upperback 2.81937 4.44862 1.29514
thorax -6.57166 2.01082 -3.63106
lowerneck -16.6174 -3.57177 -9.4828
upperneck 29.9278 -4.66288 7.80695
head 13.2339 -2.07454 3.95604
rclavicle 3.41413e-014 3.38431e-014
rhumerus -27.0489 0.701195 -85.5024
rradius 35.244
rwrist -9.3529
rhand -16.6176 13.521
rfingers 7.12502
rthumb 9.60427 -16.2401
lclavicle 3.41413e-014 3.38431e-014
lhumerus -31.6133 5.03411 85.1309
lradius 29.5122
lwrist 2.87383
lhand -17.5173 21.0882
lfingers 7.12502
lthumb 8.73614 50.8875
rfemur 10.5762 -3.62282 29.3913
rtibia 11.1628
rfoot 33.5399 0.335187
rtoes -4.39537
lfemur -69.4477 5.35599 -13.259
ltibia 90.9199
lfoot -23.5519 -15.7829
ltoes 9.00321
1769
root 8.64753 22.895 -5.65486 6.70522 2.71722 -368.493
lowerback 18.0744 2.29666 6.9125
upperback 2.81686 4.44489 1.34714
thorax -6.64761 2.00948 -3.4887
lowerneck -16.4729 -3.62427 -9.49319
upperneck 29.5976 -4.75955 7.88339
head 13.0779 -2.10909 3.96049
rclavicle -3.07122e-014 1.23743e-014
rhumerus -26.9993 1.0529 -85.4564
rradius 35.3073
rwrist -9.31302
rhand -16.1784 13.2141
rfingers 7.12502
rthumb 10.0281 -16.527
lclavicle -3.07122e-014 1.23743e-014
lhumerus -31.549 4.51 85.3195
lradius 29.9412
lwrist 2.89311
lhand -16.8175 21.3046
lfingers 7.12502
lthumb 9.4114 51.0745
rfemur 8.58615 -3.67852 29.298
rtibia 15.1272
rfoot 33.1403 -1.37765
rtoes 1.71707
lfemur -68.2082 5.17223 -13.0994
ltibia 89.8593
lfoot -23.7399 -15.4953
ltoes 9.03812
1770
root 8.66005 23.0358 -5.54292 6.88887 2.66537 -368.308
lowerback 18.0649 2.31268 6.51105
upperback 2.842 4.38684 1.34979
thorax -6.65239 1.99089 -3.24751
lowerneck -16.583 -3.65062 -9.41422
upperneck 29.5171 -4.80028 7.85234
head 13.0692 -2.11993 3.92415
rclavicle -7.48673e-014 -1.32192e-014
rhumerus -26.8484 1.37421 -85.4025
rradius 35.42
rwrist -9.60193
rhand -15.3018 12.4161
rfingers 7.12502
rthumb 10.8737 -17.2824
lclavicle -7.48673e-014 -1.32192e-014
lhumerus -31.4568 3.98311 85.4457
lradius 30.5674
lwrist 3.50675
lhand -15.9905 22.0026
lfingers 7.12502
lthumb 10.2093 51.7349
rfemur 6.67472 -3.75947 28.9912
rtibia 18.8257
rfoot 32.1813 -2.63849
rtoes 3.58398
lfemur -66.956 4.92298 -13.2272
ltibia 88.705
lfoot -24.1159 -14.9863
ltoes 8.59182
1771
root 8.67382 23.1705 -5.4332 7.17964 2.61294 -368.087
lowerback 17.9136 2.30221 6.04586
upperback 2.79274 4.27796 1.37801
thorax -6.67162 1.94774 -2.92637
lowerneck -16.6252 -3.62925 -9.48719
upperneck 29.5603 -4.78125 7.95882
head 13.0991 -2.10635 3.98413
rclavicle 4.28878e-014 3.28989e-014
rhumerus -26.7977 1.8806 -85.4345
rradius 35.2104
rwrist -8.74677
rhand -16.2824 13.1058
rfingers 7.12502
rthumb 9.92773 -16.6401
lclavicle 4.28878e-014 3.28989e-014
lhumerus -31.4173 3.55115 85.5912
lradius 30.862
lwrist 3.75834
lhand -16.2315 21.9679
lfingers 7.12502
lthumb 9.97681 51.7115
rfemur 4.80592 -3.85544 28.6389
rtibia 22.3267
rfoot 29.7913 -3.94123
rtoes -2.54553
lfemur -65.8893 4.64854 -13.4255
ltibia 87.5213
lfoot -24.5189 -14.3852
ltoes 6.79111
1772
root 8.68946 23.2994 -5.32582 7.453 2.61349 -368.056
lowerback 17.7419 2.25652 5.89312
upperback 2.72858 4.18244 1.40704
thorax -6.66984 1.90458 -2.78145
lowerneck -16.4333 -3.57075 -9.56801
upperneck 29.3584 -4.75298 8.18564
head 12.9789 -2.07712 4.08645
rclavicle 3.90115e-015 -3.04638e-014
rhumerus -26.6441 1.57692 -85.2309
rradius 35.3561
rwrist -8.98364
rhand -15.133 12.8807
rfingers 7.12502
rthumb 11.0365 -16.8091
lclavicle 3.90115e-015 -3.04638e-014
lhumerus -31.2786 3.25233 85.6549
lradius 30.774
lwrist 3.43652
lhand -16.7318 20.9715
lfingers 7.12502
lthumb 9.49411 50.7376
rfemur 2.87498 -4.18969 28.4671
rtibia 25.9831
rfoot 28.5322 -4.64865
rtoes -1.47254
lfemur -64.877 4.39707 -13.4092
ltibia 86.3464
lfoot -24.6819 -13.9931
ltoes 5.99575
1773
root 8.70513 23.4604 -5.21396 7.66981 2.71946 -368.116
lowerback 17.6075 2.16531 5.96024
upperback 2.67795 4.06875 1.4102
thorax -6.65671 1.84788 -2.78512
lowerneck -16.1637 -3.52847 -9.4341
upperneck 29.007 -4.73827 8.17986
head 12.7703 -2.06016 4.05011
rclavicle 2.20403e-014 7.95139e-016
rhumerus -26.6146 1.53435 -85.201
rradius 35.3025
rwrist -8.71808
rhand -15.3691 13.2103
rfingers 7.12502
rthumb 10.8087 -16.4916
lclavicle 2.20403e-014 7.95139e-016
lhumerus -30.9526 3.01865 85.5995
lradius 30.5558
lwrist 3.31509
lhand -16.8186 20.0477
lfingers 7.12502
lthumb 9.41033 49.8176
rfemur 0.973529 -4.77139 28.4164
rtibia 29.6181
rfoot 27.5998 -5.17263
rtoes -2.54021
lfemur -63.5886 4.09868 -13.2837
ltibia 84.9482
lfoot -24.724 -13.8181
ltoes 6.89618
1774
root 8.71851 23.5968 -5.10715 7.74494 2.7203 -368.007
lowerback 17.6225 2.10655 5.73671
upperback 2.66641 3.95406 1.44174
thorax -6.70502 1.79596 -2.60267
lowerneck -16.2095 -3.54875 -9.4275
upperneck 29.0025 -4.76492 8.17183
head 12.7809 -2.07192 4.04107
rclavicle 4.32108e-014 -2.93207e-015
rhumerus -26.4471 1.32567 -84.9806
rradius 35.2708
rwrist -8.67349
rhand -15.1548 13.0454
rfingers 7.12502
rthumb 11.0154 -16.6456
lclavicle 4.32108e-014 -2.93207e-015
lhumerus -30.6552 2.79831 85.6031
lradius 30.4921
lwrist 3.38027
lhand -16.9082 19.7527
lfingers 7.12502
lthumb 9.32393 49.5265
rfemur -0.80828 -5.04983 28.1996
rtibia 33.3846
rfoot 27.0237 -6.36301
rtoes -1.82831
lfemur -62.3006 3.84562 -13.3645
ltibia 83.6253
lfoot -24.7379 -13.5353
ltoes 6.83898
1775
root 8.72951 23.7328 -5.00491 7.72321 2.6383 -367.607
lowerback 17.8033 2.097 5.18918
upperback 2.65043 3.84851 1.4035
thorax -6.86319 1.75169 -2.32352
lowerneck -16.3538 -3.58817 -9.62819
upperneck 29.1003 -4.84541 8.45537
head 12.8749 -2.09218 4.17958
rclavicle 2.01021e-014 5.01931e-015
rhumerus -26.2641 0.671639 -84.6986
rradius 35.2365
rwrist -8.54685
rhand -14.9259 12.8491
rfingers 7.12502
rthumb 11.2362 -16.83
lclavicle 2.01021e-014 5.01931e-015
lhumerus -30.5932 2.70023 85.5485
lradius 30.7729
lwrist 3.51924
lhand -17.1462 20.1079
lfingers 7.12502
lthumb 9.09425 49.8918
rfemur -2.56827 -5.22064 27.7256
rtibia 37.2373
rfoot 26.9205 -7.03848
rtoes -0.564976
lfemur -60.872 3.61731 -13.7778
ltibia 82.251
lfoot -24.709 -13.1699
ltoes 6.03802
1776
root 8.74177 23.8622 -4.90616 7.83587 2.58481 -367.057
lowerback 17.8793 2.06338 4.57458
upperback 2.55404 3.68699 1.27946
thorax -7.05133 1.68035 -2.08163
lowerneck -16.3154 -3.56569 -9.79631
upperneck 29.0728 -4.87149 8.78817
head 12.8725 -2.0818 4.33683
rclavicle -5.29016e-014 -1.38155e-014
rhumerus -26.392 0.0776907 -84.5744
rradius 35.316
rwrist -8.18273
rhand -15.2935 13.1209
rfingers 7.12502
rthumb 10.8817 -16.5771
lclavicle -5.29016e-014 -1.38155e-014
lhumerus -30.6794 2.96558 85.3314
lradius 31.1437
lwrist 3.53779
lhand -17.7272 20.2262
lfingers 7.12502
lthumb 8.53362 50.0337
rfemur -4.56339 -5.49844 27.1425
rtibia 41.2091
rfoot 26.3618 -7.18929
rtoes -1.15504
lfemur -59.6571 3.32201 -14.3514
ltibia 80.9062
lfoot -24.5768 -12.8574
ltoes 5.9001
1777
root 8.75919 23.9969 -4.80099 8.00345 2.41973 -366.462
lowerback 17.7053 2.05206 3.89269
upperback 2.53823 3.52658 1.18622
thorax -7.01943 1.62035 -1.75379
lowerneck -16.428 -3.52562 -9.9672
upperneck 29.15 -4.82247 8.99291
head 12.933 -2.05244 4.46007
rclavicle -1.50828e-014 6.70898e-015
rhumerus -26.5235 -0.161226 -84.4115
rradius 35.5792
rwrist -8.13665
rhand -16.0077 13.3736
rfingers 7.12502
rthumb 10.1927 -16.3595
lclavicle -1.50828e-014 6.70898e-015
lhumerus -30.662 3.34454 85.1903
lradius 31.5098
lwrist 3.83627
lhand -18.4554 19.4485
lfingers 7.12502
lthumb 7.83077 49.2835
rfemur -6.51407 -5.64463 26.3823
rtibia 45.1239
rfoot 27.124 -8.48634
rtoes 7.63364
lfemur -58.4149 3.03425 -14.9877
ltibia 79.4919
lfoot -24.5056 -12.6156
ltoes 6.50538
1778
root 8.77869 24.1316 -4.69635 7.9951 2.17678 -366.09
lowerback 17.5709 2.10063 3.47155
upperback 2.66233 3.4968 1.14657
thorax -6.83683 1.62203 -1.54278
lowerneck -16.8075 -3.58355 -9.94422
upperneck 29.3777 -4.85957 8.88795
head 13.1101 -2.07345 4.41734
rclavicle -8.3738e-015 2.03754e-015
rhumerus -26.3283 -0.620773 -84.1465
rradius 35.6289
rwrist -8.11702
rhand -17.6019 13.9281
rfingers 7.12502
rthumb 8.65453 -15.8745
lclavicle -8.3738e-015 2.03754e-015
lhumerus -30.393 3.51384 85.1346
lradius 31.8768
lwrist 4.52094
lhand -18.7091 18.7574
lfingers 7.12502
lthumb 7.58593 48.6013
rfemur -8.27483 -5.91014 25.7968
rtibia 48.9653
rfoot 26.4938 -9.4269
rtoes 6.96566
lfemur -56.9536 2.82305 -15.4056
ltibia 78.0275
lfoot -24.4953 -12.152
ltoes 6.08809
